<?xml version="1.0" standalone="no"?>
<!DOCTYPE svg PUBLIC "-//W3C//DTD SVG 20010904//EN"
 "http://www.w3.org/TR/2001/REC-SVG-20010904/DTD/svg10.dtd">
<svg version="1.0" xmlns="http://www.w3.org/2000/svg"
 width="300.000000pt" height="68.000000pt" viewBox="0 0 300.000000 68.000000"
 preserveAspectRatio="xMidYMid meet">
<metadata>
Created by potrace 1.10, written by Peter Selinger 2001-2011
</metadata>
<g transform="translate(0.000000,68.000000) scale(0.100000,-0.100000)"
fill="#000000" stroke="none">
<path d="M1320 656 c-14 -9 -48 -15 -75 -16 -73 0 -137 -19 -354 -104 -184
-73 -196 -76 -275 -76 -142 0 -191 -19 -448 -172 l-118 -70 21 -41 c12 -23 37
-59 57 -80 l36 -37 -37 0 c-20 0 -37 -4 -37 -10 0 -6 53 -10 140 -10 77 0 140
4 140 8 0 4 -17 14 -37 21 -41 15 -158 125 -149 140 4 5 19 12 35 16 31 7 56
31 90 87 60 100 141 134 321 132 104 -1 140 -6 214 -28 112 -34 286 -105 286
-118 0 -15 -55 -90 -92 -125 -18 -18 -58 -46 -88 -62 -62 -34 -52 -43 11 -10
55 28 121 90 159 150 l32 49 79 0 c155 0 407 45 547 98 37 14 59 17 93 11 l44
-8 -48 3 c-52 4 -98 -19 -230 -115 -101 -73 -161 -104 -277 -143 -126 -42
-265 -67 -380 -69 l-85 -2 3 43 c2 23 -2 59 -9 80 -12 37 -50 102 -59 102 -3
0 -5 -31 -5 -68 0 -54 -5 -78 -27 -121 -16 -29 -28 -54 -28 -56 0 -2 345 -4
766 -4 732 -2 766 -1 759 16 -50 121 -46 188 19 296 19 31 29 57 23 57 -25 0
-113 -49 -139 -76 -15 -16 -34 -45 -42 -64 -13 -32 -13 -41 3 -88 18 -51 64
-112 85 -112 5 0 -4 15 -22 33 -33 34 -62 93 -62 128 0 56 68 132 138 153 22
8 22 6 -9 -49 -40 -71 -51 -168 -25 -229 9 -21 16 -39 16 -40 0 0 -21 -2 -48
-4 -102 -6 -317 80 -471 188 l-74 52 54 34 c37 23 71 35 114 39 82 10 156 39
215 86 65 51 142 64 335 55 153 -8 212 -20 355 -73 94 -35 110 -45 110 -71 0
-9 -8 -7 -25 7 -33 25 -76 35 -117 26 l-32 -7 35 -19 c18 -10 46 -18 61 -19
21 0 28 -6 33 -28 3 -16 1 -41 -5 -56 -5 -15 -8 -31 -5 -36 5 -8 -15 -36 -93
-130 l-34 -40 133 0 132 0 -49 54 c-30 33 -58 54 -71 55 -29 1 -29 4 8 69 30
54 47 137 32 158 -9 12 -127 59 -238 94 -60 20 -98 23 -263 27 -185 4 -199 5
-350 43 -224 56 -376 81 -537 86 -113 4 -145 2 -165 -10z m400 -25 c146 -25
322 -63 317 -67 -2 -2 -89 9 -193 26 -212 33 -364 50 -463 51 -49 0 -61 3 -46
10 31 14 256 3 385 -20z m-195 -11 c109 -10 581 -78 605 -87 8 -3 -16 -14 -53
-23 -115 -30 -245 -87 -172 -76 83 13 108 15 99 6 -14 -14 -114 -22 -129 -10
-8 7 -38 1 -100 -20 -172 -58 -413 -100 -576 -100 -46 0 -73 7 -120 30 -33 17
-105 46 -159 64 l-99 33 155 63 c86 35 165 71 177 81 l22 18 -29 1 c-40 0 -22
17 24 23 69 8 257 6 355 -3z m-376 -34 c-2 -2 -69 -31 -149 -63 -98 -40 -167
-62 -210 -67 -36 -4 -62 -4 -57 0 4 4 78 35 164 70 114 45 172 63 207 63 27 1
47 -1 45 -3z m905 -116 c-6 -6 -32 -13 -59 -15 -52 -4 -54 3 -3 15 51 12 74
12 62 0z m784 -86 c26 -17 30 -60 7 -90 -14 -18 -14 -17 -9 12 9 46 -9 70 -56
78 -22 3 -40 11 -40 17 0 15 67 3 98 -17z m-2540 -70 c-37 -48 -81 -84 -104
-84 -4 0 3 12 17 28 43 47 57 70 25 42 -15 -14 -35 -37 -44 -52 -16 -27 -79
-47 -102 -33 -11 7 142 104 175 111 10 2 28 13 39 24 39 38 35 20 -6 -36z
m1475 -76 c26 -17 47 -34 47 -38 0 -10 -210 -78 -312 -101 -64 -14 -142 -22
-248 -25 -153 -4 -154 -3 -84 10 173 33 308 86 426 165 82 56 83 57 103 38 11
-10 41 -32 68 -49z m-914 -14 c4 3 4 -20 0 -50 -8 -60 -31 -104 -54 -104 -11
0 -9 12 10 52 14 29 25 71 26 93 1 22 3 32 6 22 2 -9 8 -15 12 -13z m-664 -59
c17 -22 52 -55 79 -72 l48 -33 -67 0 c-82 0 -116 21 -157 96 l-26 49 46 0 c43
0 50 -3 77 -40z m689 -47 c-3 -20 -13 -39 -21 -42 -24 -10 -26 -1 -9 33 9 16
16 47 17 68 l1 38 9 -30 c5 -16 7 -47 3 -67z m1029 35 c39 -20 104 -47 142
-59 l70 -23 -345 0 -345 0 87 19 c87 19 256 72 287 90 23 14 25 13 104 -27z
m978 -19 l43 -44 -113 0 -113 0 43 48 c53 60 78 59 140 -4z"/>
<path d="M1255 594 c-11 -2 -86 -37 -167 -76 -142 -70 -162 -87 -97 -88 14 0
39 -6 55 -14 24 -12 61 -13 225 -6 212 11 324 26 409 59 50 19 117 67 107 77
-2 2 -48 13 -103 25 -95 21 -375 36 -429 23z m366 -25 c155 -26 164 -30 118
-58 -78 -48 -208 -74 -437 -87 l-123 -7 7 28 c5 18 2 30 -7 36 -18 11 -75 1
-121 -22 -39 -20 -78 -25 -78 -11 0 9 251 128 285 135 57 13 243 5 356 -14z
m-441 -107 c0 -27 -31 -47 -74 -47 -63 0 -80 20 -35 39 36 16 109 21 109 8z"/>
<path d="M1800 511 c-14 -14 -35 -32 -45 -39 -17 -11 -11 -12 40 -7 70 6 191
44 178 55 -4 4 -39 10 -78 12 -65 4 -72 3 -95 -21z m136 0 c-5 -8 -37 -17
-136 -37 l-25 -6 25 25 c20 20 36 25 83 26 32 1 56 -3 53 -8z"/>
<path d="M520 411 c-83 -26 -131 -75 -150 -153 -24 -92 30 -194 122 -232 140
-59 296 68 273 221 -16 106 -148 195 -245 164z m117 -22 c40 -15 91 -67 104
-107 15 -47 13 -115 -5 -150 -36 -70 -132 -121 -199 -106 -179 38 -216 275
-56 356 38 20 113 23 156 7z"/>
<path d="M2413 395 c-73 -37 -107 -89 -111 -174 -2 -54 1 -73 20 -105 39 -66
89 -99 157 -104 75 -5 119 9 164 55 111 110 67 292 -82 342 -52 17 -92 13
-148 -14z m193 -20 c13 -8 35 -31 51 -51 22 -30 28 -49 31 -103 3 -59 0 -71
-26 -112 -64 -100 -202 -119 -286 -41 -97 91 -82 252 29 310 62 32 149 31 201
-3z"/>
</g>
</svg>
